<svg id="Layer_1" data-name="Layer 1" xmlns="http://www.w3.org/2000/svg" viewBox="0 0 384 384"><path d="M202.93,79.88c0,6.7.12,13.06-.06,19.4-.07,2.58.58,3.61,3.31,4.14,22.15,4.29,39.62,23.78,41.59,46.19.14,1.58,0,3.19,0,5H225.67c-1.2-14.55-8.47-24.16-22.55-29-.08,1.51-.19,2.58-.19,3.65,0,17,0,33.93-.06,50.89,0,2.58.61,3.66,3.28,4.24,9,1.93,17.88,4.48,25.25,10.59,19.62,16.27,22.27,45.37,5.94,66.63a51.09,51.09,0,0,1-31.59,19.76c-2.44.48-2.9,1.57-2.86,3.76.11,6.47,0,13,0,19.72H180.42c0-6.52-.12-13,.06-19.41.07-2.57-.58-3.6-3.31-4.13-22-4.3-39.3-23.42-41.56-45.82-.17-1.7,0-3.44,0-5.39h22.08c1.2,14.56,8.47,24.18,22.56,29,.08-1.5.18-2.57.18-3.64,0-17,0-33.93.07-50.89,0-2.6-.66-3.71-3.29-4.26-9.2-1.92-18.1-4.58-25.52-10.82-19.28-16.2-21.91-45.07-5.9-66.09a51.46,51.46,0,0,1,31.83-20.05c2.44-.48,2.9-1.57,2.86-3.75-.12-6.48,0-13,0-19.72Zm-22.78,97.67V126A29.57,29.57,0,0,0,158,156.47C158.52,167.64,167.1,175.85,180.15,177.55Zm23,29.64v51.55c13.54-3.16,22.94-16.16,22.21-30.44C224.82,217.12,216.08,208.72,203.18,207.19Z"/><path d="M307.85,315.36c-23.27,22.35-53.25,36.47-84.63,42.41s-62.41,3.38-92.25-8.37c-42.39-16.69-73.62-45.75-92.79-87.1s-20.4-83.67-6.14-127l-21.68-7.69C7.84,138,5.12,147.89,3.09,158,1.59,165.36,1,173,0,180.45v23.2c1,7.14,1.57,14.36,3,21.41,14,69.83,53.66,119.54,119.91,145.11,66,25.47,128.54,15.11,185.72-26.69,2.51-1.84,4.88-3.88,7.27-5.89s4.45-3.88,7.24-6.33"/><path d="M179.69.05c-7,1-14.07,1.7-21.05,2.91-36.18,6.26-67.8,22-95.16,46.35-.75.67-1.49,1.34-2.26,2-.15.12-.45,0-1,.09V22.84H37.76v67.1h71V67.7H78c23.13-22.32,50.5-36.12,81.74-42.07s61.73-3.15,91.6,7.84C327.8,61.62,382.69,150.72,352.63,244.55l21.53,7.1c2.07-8.63,4.47-16.86,6-25.25,15.31-84.5-26.08-167.52-102.74-206.19A186.35,186.35,0,0,0,206.9.69a26.65,26.65,0,0,1-3.25-.64Z"/><path d="M75.23,317c23.27,22.35,54.17,34.82,85.55,40.76s62.41,3.38,92.25-8.37c42.39-16.69,73.62-45.75,92.79-87.1s20.4-83.67,6.14-127c7-2.49,12.66-2.74,20.47-5.51,2.51,10.38,6.45,18.12,8.48,28.19,1.5,7.4,2.09,15,3.09,22.49v23.2c-1,7.14-1.57,14.36-3,21.41-13.95,69.83-53.66,119.54-119.91,145.11-66,25.47-128.54,15.11-185.72-26.69-2.51-1.84-4.88-3.88-7.27-5.89s-4.45-3.88-7.24-6.33"/></svg>