<svg id="Layer_1" data-name="Layer 1" xmlns="http://www.w3.org/2000/svg" viewBox="0 0 428.38 379.93"><path d="M226.81,379.93q-40.44-10.87-80.88-21.76c-9.61-2.6-19.19-5.3-28.77-8a28.37,28.37,0,0,0-21.6,2.32c-2.8,1.47-5.46,3.25-8.36,4.47-5.1,2.14-8.74,4.64-8.27,11.3.31,4.46-3.26,7.2-7.83,7.11-20.89-.41-41.77-.89-62.65-1.59-6-.2-8.61-3.52-8.44-9.77q1.52-56,3.13-112c.21-7.75.35-15.51.59-23.26.22-7,3.06-9.7,10.06-9.54q29.19.66,58.38,1.45c8.7.24,11.13,3,10.79,11.78-.12,3,0,6,0,9,6.82-2.4,13.5-5.21,20.43-7.11,24.94-6.86,49.46-5.11,72.41,6.77a97.47,97.47,0,0,0,46.38,11.38c14.55-.08,29.1.81,43.66,1.05,19.39.33,34.35,8.43,44.73,24.87.33.53.73,1,1.32,1.82,4.28-2,8.55-4,12.79-6,17-8,33.93-16.24,51-24a40.08,40.08,0,0,1,50,14.11c4.34,6.48,3.61,10.48-2.86,14.66q-69.1,44.72-138.29,89.32c-10,6.42-21.55,8.85-33.17,10.66-1.54.24-3.05.64-4.58,1Zm74-82.52c-3.18-15.49-16.2-26.9-31.14-27.65-10.11-.5-20.24-.64-30.37-1-11.54-.37-23.1-.47-34.62-1.22-13.23-.88-24.71-7.06-36.51-12.52-27.75-12.83-55.16-11.37-81.9,3.47-3,1.64-4.22,3.54-4.3,7-.56,24.68-1.34,49.35-2,74a16.78,16.78,0,0,0,.22,2.17c.56.08.92.25,1.15.14A36.51,36.51,0,0,0,85.14,340c12.42-7.43,25.49-8.54,39.28-4.48q22.72,6.69,45.59,12.88c18.75,5.09,37.34,11.08,56.39,14.59,17.73,3.27,35.68.62,51.22-9.25,42.44-27,84.51-54.51,126.72-81.84,1.37-.89,2.7-1.84,4.17-2.85-8.15-7.12-17.62-8.4-27.41-3.81-17.88,8.38-35.71,16.89-53.56,25.34l-10.4,4.93c.25,3.24.61,5.91.64,8.58.07,6.33-3,9.57-9.18,9.41q-46.28-1.15-92.54-2.54c-5.8-.17-9.22-3.49-9.05-8.17s3.78-7.7,9.55-7.59c10,.19,19.93.48,29.9.75ZM19.55,236.2c-1.11,40.33-2.23,81-3.37,122.33H63.49c1.11-40.45,2.23-81,3.36-122.33Z"/><path d="M219.16,231.09A115.65,115.65,0,0,1,103.48,115.53C103.5,51.82,155.45,0,219.25,0A115.66,115.66,0,0,1,334.92,115.59C334.9,179.38,283.06,231.1,219.16,231.09ZM219,215.24c54.67.21,99.58-44.25,99.91-98.89A99.58,99.58,0,0,0,219.65,16C164.73,15.64,119.74,60.14,119.5,115A99.74,99.74,0,0,0,219,215.24Z"/><path d="M253.29,141.18A33.77,33.77,0,0,1,230,173.13c-3.11,1.05-4.44,2.43-4,5.66a14.86,14.86,0,0,1-.13,4.26c-.65,4.2-3.42,6.33-7.43,6.73-3.85.37-8.18-2.7-7.83-6.58.69-7.44-3.12-10.25-9.09-13.39-10.18-5.35-15.19-14.87-16.37-26.27-.61-5.83,2.33-10,7.15-10.44s8.25,3,8.79,9c.95,10.24,8.49,17.06,18.69,16.9a17.87,17.87,0,0,0,17.4-16.77,17.66,17.66,0,0,0-16-19c-7.31-.78-14.41-1.59-20.68-5.88-10.83-7.43-16.18-17.8-15.26-30.75,1-13.34,7.83-23.29,20.25-28.63,3.92-1.69,5.24-3.66,4.78-7.67-.42-3.65.57-7,4.09-8.92a7.79,7.79,0,0,1,11.52,5.77,16.44,16.44,0,0,1,.14,4.26c-.35,3,.79,4.27,3.78,5.32,13.89,4.85,21.46,15,23.33,29.46.52,4.06-.37,7.63-4.26,9.74-5.42,3-11-.84-11.66-7.82-1.07-11.62-10.64-19-21.75-16.83a18,18,0,0,0,.41,35.35c4.05.67,8.23.73,12.18,1.74A33.82,33.82,0,0,1,253.29,141.18Z"/></svg>