<svg width="32" height="32" viewBox="0 0 32 32" fill="none" xmlns="http://www.w3.org/2000/svg">
<path fill-rule="evenodd" clip-rule="evenodd" d="M4.80029 7.9999C4.80029 7.57555 4.96887 7.16859 5.26892 6.86853C5.56898 6.56848 5.97594 6.3999 6.40029 6.3999H25.6003C26.0246 6.3999 26.4317 6.56848 26.7317 6.86853C27.0317 7.16859 27.2003 7.57555 27.2003 7.9999C27.2003 8.42425 27.0317 8.83121 26.7317 9.13128C26.4317 9.43133 26.0246 9.5999 25.6003 9.5999H6.40029C5.97594 9.5999 5.56898 9.43133 5.26892 9.13128C4.96887 8.83121 4.80029 8.42425 4.80029 7.9999ZM4.80029 15.9999C4.80029 15.5756 4.96887 15.1686 5.26892 14.8685C5.56898 14.5685 5.97594 14.3999 6.40029 14.3999H16.0003C16.4246 14.3999 16.8317 14.5685 17.1317 14.8685C17.4317 15.1686 17.6003 15.5756 17.6003 15.9999C17.6003 16.4242 17.4317 16.8313 17.1317 17.1313C16.8317 17.4313 16.4246 17.5999 16.0003 17.5999H6.40029C5.97594 17.5999 5.56898 17.4313 5.26892 17.1313C4.96887 16.8313 4.80029 16.4242 4.80029 15.9999ZM4.80029 23.9999C4.80029 23.5756 4.96887 23.1685 5.26892 22.8685C5.56898 22.5685 5.97594 22.3999 6.40029 22.3999H25.6003C26.0246 22.3999 26.4317 22.5685 26.7317 22.8685C27.0317 23.1685 27.2003 23.5756 27.2003 23.9999C27.2003 24.4242 27.0317 24.8313 26.7317 25.1313C26.4317 25.4313 26.0246 25.5999 25.6003 25.5999H6.40029C5.97594 25.5999 5.56898 25.4313 5.26892 25.1313C4.96887 24.8313 4.80029 24.4242 4.80029 23.9999Z" fill="black"/>
</svg>
